<svg id="ahp-831fd7e7ac7606ec" width="100%" xmlns="http://www.w3.org/2000/svg" style="max-width: 1335.671875px;" viewBox="-8 -17.592000007629395 1335.671875 185.7345733642578" role="graphics-document document" aria-roledescription="flowchart-v2"><title>S10-error-analysis</title><desc>Failure traces move through open coding, axial grouping, and count-by-severity ranking; top categories drive focused fixes and recurrent categories add eval tasks whose results produce new traces.</desc><style>#ahp-831fd7e7ac7606ec{font-family:Arial,sans-serif;font-size:16px;fill:#ccc;}#ahp-831fd7e7ac7606ec .error-icon{fill:#a44141;}#ahp-831fd7e7ac7606ec .error-text{fill:#ddd;stroke:#ddd;}#ahp-831fd7e7ac7606ec .edge-thickness-normal{stroke-width:2px;}#ahp-831fd7e7ac7606ec .edge-thickness-thick{stroke-width:3.5px;}#ahp-831fd7e7ac7606ec .edge-pattern-solid{stroke-dasharray:0;}#ahp-831fd7e7ac7606ec .edge-pattern-dashed{stroke-dasharray:3;}#ahp-831fd7e7ac7606ec .edge-pattern-dotted{stroke-dasharray:2;}#ahp-831fd7e7ac7606ec .marker{fill:lightgrey;stroke:lightgrey;}#ahp-831fd7e7ac7606ec .marker.cross{stroke:lightgrey;}#ahp-831fd7e7ac7606ec svg{font-family:Arial,sans-serif;font-size:16px;}#ahp-831fd7e7ac7606ec .label{font-family:Arial,sans-serif;color:#ccc;}#ahp-831fd7e7ac7606ec .cluster-label text{fill:#F9FFFE;}#ahp-831fd7e7ac7606ec .cluster-label span,#ahp-831fd7e7ac7606ec p{color:#F9FFFE;}#ahp-831fd7e7ac7606ec .label text,#ahp-831fd7e7ac7606ec span,#ahp-831fd7e7ac7606ec p{fill:#ccc;color:#ccc;}#ahp-831fd7e7ac7606ec .node rect,#ahp-831fd7e7ac7606ec .node circle,#ahp-831fd7e7ac7606ec .node ellipse,#ahp-831fd7e7ac7606ec .node polygon,#ahp-831fd7e7ac7606ec .node path{fill:#1f2020;stroke:#81B1DB;stroke-width:1px;}#ahp-831fd7e7ac7606ec .flowchart-label text{text-anchor:middle;}#ahp-831fd7e7ac7606ec .node .katex path{fill:#000;stroke:#000;stroke-width:1px;}#ahp-831fd7e7ac7606ec .node .label{text-align:center;}#ahp-831fd7e7ac7606ec .node.clickable{cursor:pointer;}#ahp-831fd7e7ac7606ec .arrowheadPath{fill:lightgrey;}#ahp-831fd7e7ac7606ec .edgePath .path{stroke:lightgrey;stroke-width:2.0px;}#ahp-831fd7e7ac7606ec .flowchart-link{stroke:lightgrey;fill:none;}#ahp-831fd7e7ac7606ec .edgeLabel{background-color:hsl(0, 0%, 34.4117647059%);text-align:center;}#ahp-831fd7e7ac7606ec .edgeLabel rect{opacity:0.5;background-color:hsl(0, 0%, 34.4117647059%);fill:hsl(0, 0%, 34.4117647059%);}#ahp-831fd7e7ac7606ec .labelBkg{background-color:rgba(87.75, 87.75, 87.75, 0.5);}#ahp-831fd7e7ac7606ec .cluster rect{fill:hsl(180, 1.5873015873%, 28.3529411765%);stroke:rgba(255, 255, 255, 0.25);stroke-width:1px;}#ahp-831fd7e7ac7606ec .cluster text{fill:#F9FFFE;}#ahp-831fd7e7ac7606ec .cluster span,#ahp-831fd7e7ac7606ec p{color:#F9FFFE;}#ahp-831fd7e7ac7606ec div.mermaidTooltip{position:absolute;text-align:center;max-width:200px;padding:2px;font-family:Arial,sans-serif;font-size:12px;background:hsl(20, 1.5873015873%, 12.3529411765%);border:1px solid rgba(255, 255, 255, 0.25);border-radius:2px;pointer-events:none;z-index:100;}#ahp-831fd7e7ac7606ec .flowchartTitleText{text-anchor:middle;font-size:18px;fill:#ccc;}#ahp-831fd7e7ac7606ec :root{--mermaid-font-family:Arial,sans-serif;}</style><g><marker id="ahp-831fd7e7ac7606ec_flowchart-pointEnd" class="marker flowchart" viewBox="0 0 10 10" refX="6" refY="5" markerUnits="userSpaceOnUse" markerWidth="12" markerHeight="12" orient="auto"><path d="M 0 0 L 10 5 L 0 10 z" class="arrowMarkerPath" style="stroke-width: 1; stroke-dasharray: 1, 0;"></path></marker><marker id="ahp-831fd7e7ac7606ec_flowchart-pointStart" class="marker flowchart" viewBox="0 0 10 10" refX="4.5" refY="5" markerUnits="userSpaceOnUse" markerWidth="12" markerHeight="12" orient="auto"><path d="M 0 5 L 10 10 L 10 0 z" class="arrowMarkerPath" style="stroke-width: 1; stroke-dasharray: 1, 0;"></path></marker><marker id="ahp-831fd7e7ac7606ec_flowchart-circleEnd" class="marker flowchart" viewBox="0 0 10 10" refX="11" refY="5" markerUnits="userSpaceOnUse" markerWidth="11" markerHeight="11" orient="auto"><circle cx="5" cy="5" r="5" class="arrowMarkerPath" style="stroke-width: 1; stroke-dasharray: 1, 0;"></circle></marker><marker id="ahp-831fd7e7ac7606ec_flowchart-circleStart" class="marker flowchart" viewBox="0 0 10 10" refX="-1" refY="5" markerUnits="userSpaceOnUse" markerWidth="11" markerHeight="11" orient="auto"><circle cx="5" cy="5" r="5" class="arrowMarkerPath" style="stroke-width: 1; stroke-dasharray: 1, 0;"></circle></marker><marker id="ahp-831fd7e7ac7606ec_flowchart-crossEnd" class="marker cross flowchart" viewBox="0 0 11 11" refX="12" refY="5.2" markerUnits="userSpaceOnUse" markerWidth="11" markerHeight="11" orient="auto"><path d="M 1,1 l 9,9 M 10,1 l -9,9" class="arrowMarkerPath" style="stroke-width: 2; stroke-dasharray: 1, 0;"></path></marker><marker id="ahp-831fd7e7ac7606ec_flowchart-crossStart" class="marker cross flowchart" viewBox="0 0 11 11" refX="-1" refY="5.2" markerUnits="userSpaceOnUse" markerWidth="11" markerHeight="11" orient="auto"><path d="M 1,1 l 9,9 M 10,1 l -9,9" class="arrowMarkerPath" style="stroke-width: 2; stroke-dasharray: 1, 0;"></path></marker><g class="root"><g class="clusters"></g><g class="edgePaths"><path d="M128.828,82.502L132.995,83.881C137.161,85.26,145.495,88.017,152.945,89.396C160.395,90.775,166.961,90.775,170.245,90.775L173.528,90.775" id="L-T-O-0" class="edge-thickness-normal edge-pattern-solid flowchart-link LS-T LE-O" style="fill:none;" marker-end="url(#ahp-831fd7e7ac7606ec_flowchart-pointEnd)"></path><path d="M393.047,90.775L397.214,90.775C401.38,90.775,409.714,90.775,417.164,90.775C424.614,90.775,431.18,90.775,434.464,90.775L437.747,90.775" id="L-O-A-0" class="edge-thickness-normal edge-pattern-solid flowchart-link LS-O LE-A" style="fill:none;" marker-end="url(#ahp-831fd7e7ac7606ec_flowchart-pointEnd)"></path><path d="M669.734,90.775L673.901,90.775C678.068,90.775,686.401,90.775,693.851,90.775C701.301,90.775,707.868,90.775,711.151,90.775L714.434,90.775" id="L-A-Q-0" class="edge-thickness-normal edge-pattern-solid flowchart-link LS-A LE-Q" style="fill:none;" marker-end="url(#ahp-831fd7e7ac7606ec_flowchart-pointEnd)"></path><path d="M830.986,66.592L837.861,63.092C844.735,59.592,858.485,52.592,872.052,49.092C885.619,45.592,899.003,45.592,905.695,45.592L912.388,45.592" id="L-Q-F-0" class="edge-thickness-normal edge-pattern-solid flowchart-link LS-Q LE-F" style="fill:none;" marker-end="url(#ahp-831fd7e7ac7606ec_flowchart-pointEnd)"></path><path d="M830.986,114.959L837.861,118.459C844.735,121.959,858.485,128.959,868.643,132.459C878.801,135.959,885.368,135.959,888.651,135.959L891.934,135.959" id="L-Q-E-0" class="edge-thickness-normal edge-pattern-solid flowchart-link LS-Q LE-E" style="fill:none;" marker-end="url(#ahp-831fd7e7ac7606ec_flowchart-pointEnd)"></path><path d="M1080.328,45.592L1087.904,45.592C1095.479,45.592,1110.63,45.592,1127.896,42.972C1145.162,40.352,1164.542,35.112,1174.233,32.492L1183.923,29.872" id="L-F-R-0" class="edge-thickness-normal edge-pattern-solid flowchart-link LS-F LE-R" style="fill:none;" marker-end="url(#ahp-831fd7e7ac7606ec_flowchart-pointEnd)"></path><path d="M1189.039,5.2L1178.496,2.735C1167.953,0.269,1146.867,-4.661,1115.195,-7.127C1083.523,-9.592,1041.266,-9.592,999.008,-9.592C956.75,-9.592,914.492,-9.592,878.572,-9.592C842.651,-9.592,813.068,-9.592,783.484,-9.592C753.901,-9.592,724.318,-9.592,686.469,-9.592C648.62,-9.592,602.505,-9.592,556.391,-9.592C510.276,-9.592,464.161,-9.592,419.086,-9.592C374.01,-9.592,329.974,-9.592,285.938,-9.592C241.901,-9.592,197.865,-9.592,166.69,-2.344C135.515,4.904,117.203,19.399,108.046,26.647L98.89,33.894" id="L-R-T-0" class="edge-thickness-normal edge-pattern-solid flowchart-link LS-R LE-T" style="fill:none;" marker-end="url(#ahp-831fd7e7ac7606ec_flowchart-pointEnd)"></path><path d="M1100.781,135.959L1104.948,135.959C1109.115,135.959,1117.448,135.959,1124.898,135.959C1132.348,135.959,1138.915,135.959,1142.198,135.959L1145.481,135.959" id="L-E-S-0" class="edge-thickness-normal edge-pattern-solid flowchart-link LS-E LE-S" style="fill:none;" marker-end="url(#ahp-831fd7e7ac7606ec_flowchart-pointEnd)"></path></g><g class="edgeLabels"><g class="edgeLabel"><g class="label" transform="translate(0, 0)"><rect rx="0" ry="0" width="0" height="0"></rect><text style=""><tspan xml:space="preserve" dy="1em" x="0" class="row"></tspan></text></g></g><g class="edgeLabel"><g class="label" transform="translate(0, 0)"><rect rx="0" ry="0" width="0" height="0"></rect><text style=""><tspan xml:space="preserve" dy="1em" x="0" class="row"></tspan></text></g></g><g class="edgeLabel"><g class="label" transform="translate(0, 0)"><rect rx="0" ry="0" width="0" height="0"></rect><text style=""><tspan xml:space="preserve" dy="1em" x="0" class="row"></tspan></text></g></g><g class="edgeLabel"><g class="label" transform="translate(0, 0)"><rect rx="0" ry="0" width="0" height="0"></rect><text style=""><tspan xml:space="preserve" dy="1em" x="0" class="row"></tspan></text></g></g><g class="edgeLabel"><g class="label" transform="translate(0, 0)"><rect rx="0" ry="0" width="0" height="0"></rect><text style=""><tspan xml:space="preserve" dy="1em" x="0" class="row"></tspan></text></g></g><g class="edgeLabel"><g class="label" transform="translate(0, 0)"><rect rx="0" ry="0" width="0" height="0"></rect><text style=""><tspan xml:space="preserve" dy="1em" x="0" class="row"></tspan></text></g></g><g class="edgeLabel"><g class="label" transform="translate(0, 0)"><rect rx="0" ry="0" width="0" height="0"></rect><text style=""><tspan xml:space="preserve" dy="1em" x="0" class="row"></tspan></text></g></g><g class="edgeLabel"><g class="label" transform="translate(0, 0)"><rect rx="0" ry="0" width="0" height="0"></rect><text style=""><tspan xml:space="preserve" dy="1em" x="0" class="row"></tspan></text></g></g></g><g class="nodes"><g class="node default default flowchart-label" id="flowchart-T-0" data-node="true" data-id="T" transform="translate(64.4140625, 61.18359375)"><rect class="basic label-container" style="" rx="0" ry="0" x="-64.4140625" y="-24" width="128.828125" height="48"></rect><g class="label" style="" transform="translate(0, -16.5)"><rect></rect><text style=""><tspan xml:space="preserve" dy="1em" x="0" class="row">failure traces</tspan><tspan xml:space="preserve" dy="1em" x="0" class="row">the raw material</tspan></text></g></g><g class="node default default flowchart-label" id="flowchart-O-1" data-node="true" data-id="O" transform="translate(285.9375, 90.775390625)"><rect class="basic label-container" style="" rx="0" ry="0" x="-107.109375" y="-24.08984375" width="214.21875" height="48.1796875"></rect><g class="label" style="" transform="translate(0, -16.58984375)"><rect></rect><text style=""><tspan xml:space="preserve" dy="1em" x="0" class="row">open coding</tspan><tspan xml:space="preserve" dy="1em" x="0" class="row">one free-form note per trace</tspan></text></g></g><g class="node default default flowchart-label" id="flowchart-A-3" data-node="true" data-id="A" transform="translate(556.390625, 90.775390625)"><rect class="basic label-container" style="" rx="0" ry="0" x="-113.34375" y="-24.18359375" width="226.6875" height="48.3671875"></rect><g class="label" style="" transform="translate(0, -16.68359375)"><rect></rect><text style=""><tspan xml:space="preserve" dy="1em" x="0" class="row">axial coding</tspan><tspan xml:space="preserve" dy="1em" x="0" class="row">group notes, name categories</tspan></text></g></g><g class="node default default flowchart-label" id="flowchart-Q-5" data-node="true" data-id="Q" transform="translate(783.484375, 90.775390625)"><rect class="basic label-container" style="" rx="0" ry="0" x="-63.75" y="-24.18359375" width="127.5" height="48.3671875"></rect><g class="label" style="" transform="translate(0, -16.68359375)"><rect></rect><text style=""><tspan xml:space="preserve" dy="1em" x="0" class="row">count × severity</tspan><tspan xml:space="preserve" dy="1em" x="0" class="row">priority ranking</tspan></text></g></g><g class="node default default flowchart-label" id="flowchart-F-7" data-node="true" data-id="F" transform="translate(999.0078125, 45.591796875)"><rect class="basic label-container" style="" rx="0" ry="0" x="-81.3203125" y="-16.18359375" width="162.640625" height="32.3671875"></rect><g class="label" style="" transform="translate(0, -8.68359375)"><rect></rect><text style=""><tspan xml:space="preserve" dy="1em" x="0" class="row">fix the top categories</tspan></text></g></g><g class="node default default flowchart-label" id="flowchart-E-9" data-node="true" data-id="E" transform="translate(999.0078125, 135.958984375)"><rect class="basic label-container" style="" rx="0" ry="0" x="-101.7734375" y="-24.18359375" width="203.546875" height="48.3671875"></rect><g class="label" style="" transform="translate(0, -16.68359375)"><rect></rect><text style=""><tspan xml:space="preserve" dy="1em" x="0" class="row">new eval tasks</tspan><tspan xml:space="preserve" dy="1em" x="0" class="row">one per recurrent category</tspan></text></g></g><g class="node default default flowchart-label" id="flowchart-R-11" data-node="true" data-id="R" transform="translate(1235.2265625, 16)"><rect class="basic label-container" style="" rx="0" ry="0" x="-46.1875" y="-16" width="92.375" height="32"></rect><g class="label" style="" transform="translate(0, -8.5)"><rect></rect><text style=""><tspan xml:space="preserve" dy="1em" x="0" class="row">new traces</tspan></text></g></g><g class="node default default flowchart-label" id="flowchart-S-15" data-node="true" data-id="S" transform="translate(1235.2265625, 135.958984375)"><rect class="basic label-container" style="" rx="0" ry="0" x="-84.4453125" y="-24.18359375" width="168.890625" height="48.3671875"></rect><g class="label" style="" transform="translate(0, -16.68359375)"><rect></rect><text style=""><tspan xml:space="preserve" dy="1em" x="0" class="row">the suite grows</tspan><tspan xml:space="preserve" dy="1em" x="0" class="row">denominator changes</tspan></text></g></g></g></g></g></svg>
