<svg id="ahp-ffa2e82bf17eaca6" width="100%" xmlns="http://www.w3.org/2000/svg" style="max-width: 1112.8046875px;" viewBox="-8 -8 1112.8046875 243.0865478515625" role="graphics-document document" aria-roledescription="flowchart-v2"><title>S08-observability-replay-2</title><desc>During recording, a recorder relays host requests to the live model and stores responses in a cassette; during replay, the unchanged host receives content-equal recorded responses without a live call.</desc><style>#ahp-ffa2e82bf17eaca6{font-family:Arial,sans-serif;font-size:16px;fill:#ccc;}#ahp-ffa2e82bf17eaca6 .error-icon{fill:#a44141;}#ahp-ffa2e82bf17eaca6 .error-text{fill:#ddd;stroke:#ddd;}#ahp-ffa2e82bf17eaca6 .edge-thickness-normal{stroke-width:2px;}#ahp-ffa2e82bf17eaca6 .edge-thickness-thick{stroke-width:3.5px;}#ahp-ffa2e82bf17eaca6 .edge-pattern-solid{stroke-dasharray:0;}#ahp-ffa2e82bf17eaca6 .edge-pattern-dashed{stroke-dasharray:3;}#ahp-ffa2e82bf17eaca6 .edge-pattern-dotted{stroke-dasharray:2;}#ahp-ffa2e82bf17eaca6 .marker{fill:lightgrey;stroke:lightgrey;}#ahp-ffa2e82bf17eaca6 .marker.cross{stroke:lightgrey;}#ahp-ffa2e82bf17eaca6 svg{font-family:Arial,sans-serif;font-size:16px;}#ahp-ffa2e82bf17eaca6 .label{font-family:Arial,sans-serif;color:#ccc;}#ahp-ffa2e82bf17eaca6 .cluster-label text{fill:#F9FFFE;}#ahp-ffa2e82bf17eaca6 .cluster-label span,#ahp-ffa2e82bf17eaca6 p{color:#F9FFFE;}#ahp-ffa2e82bf17eaca6 .label text,#ahp-ffa2e82bf17eaca6 span,#ahp-ffa2e82bf17eaca6 p{fill:#ccc;color:#ccc;}#ahp-ffa2e82bf17eaca6 .node rect,#ahp-ffa2e82bf17eaca6 .node circle,#ahp-ffa2e82bf17eaca6 .node ellipse,#ahp-ffa2e82bf17eaca6 .node polygon,#ahp-ffa2e82bf17eaca6 .node path{fill:#1f2020;stroke:#81B1DB;stroke-width:1px;}#ahp-ffa2e82bf17eaca6 .flowchart-label text{text-anchor:middle;}#ahp-ffa2e82bf17eaca6 .node .katex path{fill:#000;stroke:#000;stroke-width:1px;}#ahp-ffa2e82bf17eaca6 .node .label{text-align:center;}#ahp-ffa2e82bf17eaca6 .node.clickable{cursor:pointer;}#ahp-ffa2e82bf17eaca6 .arrowheadPath{fill:lightgrey;}#ahp-ffa2e82bf17eaca6 .edgePath .path{stroke:lightgrey;stroke-width:2.0px;}#ahp-ffa2e82bf17eaca6 .flowchart-link{stroke:lightgrey;fill:none;}#ahp-ffa2e82bf17eaca6 .edgeLabel{background-color:hsl(0, 0%, 34.4117647059%);text-align:center;}#ahp-ffa2e82bf17eaca6 .edgeLabel rect{opacity:0.5;background-color:hsl(0, 0%, 34.4117647059%);fill:hsl(0, 0%, 34.4117647059%);}#ahp-ffa2e82bf17eaca6 .labelBkg{background-color:rgba(87.75, 87.75, 87.75, 0.5);}#ahp-ffa2e82bf17eaca6 .cluster rect{fill:hsl(180, 1.5873015873%, 28.3529411765%);stroke:rgba(255, 255, 255, 0.25);stroke-width:1px;}#ahp-ffa2e82bf17eaca6 .cluster text{fill:#F9FFFE;}#ahp-ffa2e82bf17eaca6 .cluster span,#ahp-ffa2e82bf17eaca6 p{color:#F9FFFE;}#ahp-ffa2e82bf17eaca6 div.mermaidTooltip{position:absolute;text-align:center;max-width:200px;padding:2px;font-family:Arial,sans-serif;font-size:12px;background:hsl(20, 1.5873015873%, 12.3529411765%);border:1px solid rgba(255, 255, 255, 0.25);border-radius:2px;pointer-events:none;z-index:100;}#ahp-ffa2e82bf17eaca6 .flowchartTitleText{text-anchor:middle;font-size:18px;fill:#ccc;}#ahp-ffa2e82bf17eaca6 :root{--mermaid-font-family:Arial,sans-serif;}</style><g><marker id="ahp-ffa2e82bf17eaca6_flowchart-pointEnd" class="marker flowchart" viewBox="0 0 10 10" refX="6" refY="5" markerUnits="userSpaceOnUse" markerWidth="12" markerHeight="12" orient="auto"><path d="M 0 0 L 10 5 L 0 10 z" class="arrowMarkerPath" style="stroke-width: 1; stroke-dasharray: 1, 0;"></path></marker><marker id="ahp-ffa2e82bf17eaca6_flowchart-pointStart" class="marker flowchart" viewBox="0 0 10 10" refX="4.5" refY="5" markerUnits="userSpaceOnUse" markerWidth="12" markerHeight="12" orient="auto"><path d="M 0 5 L 10 10 L 10 0 z" class="arrowMarkerPath" style="stroke-width: 1; stroke-dasharray: 1, 0;"></path></marker><marker id="ahp-ffa2e82bf17eaca6_flowchart-circleEnd" class="marker flowchart" viewBox="0 0 10 10" refX="11" refY="5" markerUnits="userSpaceOnUse" markerWidth="11" markerHeight="11" orient="auto"><circle cx="5" cy="5" r="5" class="arrowMarkerPath" style="stroke-width: 1; stroke-dasharray: 1, 0;"></circle></marker><marker id="ahp-ffa2e82bf17eaca6_flowchart-circleStart" class="marker flowchart" viewBox="0 0 10 10" refX="-1" refY="5" markerUnits="userSpaceOnUse" markerWidth="11" markerHeight="11" orient="auto"><circle cx="5" cy="5" r="5" class="arrowMarkerPath" style="stroke-width: 1; stroke-dasharray: 1, 0;"></circle></marker><marker id="ahp-ffa2e82bf17eaca6_flowchart-crossEnd" class="marker cross flowchart" viewBox="0 0 11 11" refX="12" refY="5.2" markerUnits="userSpaceOnUse" markerWidth="11" markerHeight="11" orient="auto"><path d="M 1,1 l 9,9 M 10,1 l -9,9" class="arrowMarkerPath" style="stroke-width: 2; stroke-dasharray: 1, 0;"></path></marker><marker id="ahp-ffa2e82bf17eaca6_flowchart-crossStart" class="marker cross flowchart" viewBox="0 0 11 11" refX="-1" refY="5.2" markerUnits="userSpaceOnUse" markerWidth="11" markerHeight="11" orient="auto"><path d="M 1,1 l 9,9 M 10,1 l -9,9" class="arrowMarkerPath" style="stroke-width: 2; stroke-dasharray: 1, 0;"></path></marker><g class="root"><g class="clusters"><g class="cluster default flowchart-label" id="rep"><rect style="" rx="0" ry="0" x="551.1875" y="99.71417617797852" width="545.6171875" height="116.953125"></rect><g class="cluster-label" transform="translate(823.99609375, 99.71417617797852)"><text style=""><tspan xml:space="preserve" dy="1em" x="0" class="row">replaying</tspan></text></g></g><g class="cluster default flowchart-label" id="rec"><rect style="" rx="0" ry="0" x="0" y="0" width="501.1875" height="227.08655548095703"></rect><g class="cluster-label" transform="translate(250.59375, 0)"><text style=""><tspan xml:space="preserve" dy="1em" x="0" class="row">recording</tspan></text></g></g></g><g class="edgePaths"><path d="M70.25,93.948L78.865,93.948C87.479,93.948,104.708,93.948,121.054,93.948C137.4,93.948,152.862,93.948,160.594,93.948L168.325,93.948" id="L-H1-REC-0" class="edge-thickness-normal edge-pattern-solid flowchart-link LS-H1 LE-REC" style="fill:none;" marker-end="url(#ahp-ffa2e82bf17eaca6_flowchart-pointEnd)"></path><path d="M239.161,77.948L250.357,71.582C261.553,65.215,283.944,52.483,305.921,47.872C327.897,43.261,349.458,46.772,360.238,48.528L371.019,50.283" id="L-REC-M-0" class="edge-thickness-normal edge-pattern-solid flowchart-link LS-REC LE-M" style="fill:none;" marker-end="url(#ahp-ffa2e82bf17eaca6_flowchart-pointEnd)"></path><path d="M376.25,72.06L364.598,75.708C352.945,79.356,329.641,86.652,309.219,90.3C288.798,93.948,271.26,93.948,262.491,93.948L253.722,93.948" id="L-M-REC-0" class="edge-thickness-normal edge-pattern-solid flowchart-link LS-M LE-REC" style="fill:none;" marker-end="url(#ahp-ffa2e82bf17eaca6_flowchart-pointEnd)"></path><path d="M234.761,109.948L246.691,117.988C258.62,126.029,282.478,142.11,303.176,150.15C323.874,158.191,341.412,158.191,350.181,158.191L358.95,158.191" id="L-REC-C-0" class="edge-thickness-normal edge-pattern-solid flowchart-link LS-REC LE-C" style="fill:none;" marker-end="url(#ahp-ffa2e82bf17eaca6_flowchart-pointEnd)"></path><path d="M476.188,158.191L480.354,158.191C484.521,158.191,492.854,158.191,501.188,158.191C509.521,158.191,517.854,158.191,526.188,158.191C534.521,158.191,542.854,158.191,550.304,158.191C557.754,158.191,564.321,158.191,567.604,158.191L570.888,158.191" id="L-C-REP-0" class="edge-thickness-normal edge-pattern-solid flowchart-link LS-C LE-REP" style="fill:none;" marker-end="url(#ahp-ffa2e82bf17eaca6_flowchart-pointEnd)"></path><path d="M938.477,164.056L914.371,166.177C890.266,168.297,842.055,172.539,794.722,172.276C747.39,172.013,700.937,167.246,677.71,164.862L654.483,162.479" id="L-H2-REP-0" class="edge-thickness-normal edge-pattern-solid flowchart-link LS-H2 LE-REP" style="fill:none;" marker-end="url(#ahp-ffa2e82bf17eaca6_flowchart-pointEnd)"></path><path d="M649.211,154.444L673.316,151.97C697.422,149.496,745.633,144.549,792.964,144.118C840.295,143.688,886.746,147.774,909.971,149.818L933.197,151.861" id="L-REP-H2-0" class="edge-thickness-normal edge-pattern-solid flowchart-link LS-REP LE-H2" style="fill:none;" marker-end="url(#ahp-ffa2e82bf17eaca6_flowchart-pointEnd)"></path></g><g class="edgeLabels"><g class="edgeLabel" transform="translate(121.9375, 93.94790840148926)"><g class="label" transform="translate(-26.6875, -8.58984375)"><rect rx="0" ry="0" width="53.34560012817383" height="17.178295135498047"></rect><text style=""><tspan xml:space="preserve" dy="1em" x="0" class="row">request</tspan></text></g></g><g class="edgeLabel" transform="translate(306.3359375, 39.75)"><g class="label" transform="translate(-26.234375, -8.5)"><rect rx="0" ry="0" width="52.4393196105957" height="17.00058937072754"></rect><text style=""><tspan xml:space="preserve" dy="1em" x="0" class="row">live call</tspan></text></g></g><g class="edgeLabel" transform="translate(306.3359375, 93.94790840148926)"><g class="label" transform="translate(-32.9140625, -8.58984375)"><rect rx="0" ry="0" width="65.78353118896484" height="17.178295135498047"></rect><text style=""><tspan xml:space="preserve" dy="1em" x="0" class="row">response</tspan></text></g></g><g class="edgeLabel"><g class="label" transform="translate(0, 0)"><rect rx="0" ry="0" width="0" height="0"></rect><text style=""><tspan xml:space="preserve" dy="1em" x="0" class="row"></tspan></text></g></g><g class="edgeLabel"><g class="label" transform="translate(0, 0)"><rect rx="0" ry="0" width="0" height="0"></rect><text style=""><tspan xml:space="preserve" dy="1em" x="0" class="row"></tspan></text></g></g><g class="edgeLabel" transform="translate(793.84375, 176.78058242797852)"><g class="label" transform="translate(-26.6875, -8.58984375)"><rect rx="0" ry="0" width="53.34560012817383" height="17.178295135498047"></rect><text style=""><tspan xml:space="preserve" dy="1em" x="0" class="row">request</tspan></text></g></g><g class="edgeLabel" transform="translate(793.84375, 139.60089492797852)"><g class="label" transform="translate(-119.6328125, -8.58984375)"><rect rx="0" ry="0" width="239.13330078125" height="17.178295135498047"></rect><text style=""><tspan xml:space="preserve" dy="1em" x="0" class="row">recorded response, content-equal</tspan></text></g></g></g><g class="nodes"><g class="node default default flowchart-label" id="flowchart-REP-9" data-node="true" data-id="REP" transform="translate(612.69921875, 158.19073867797852)"><rect class="basic label-container" style="" rx="0" ry="0" x="-36.51171875" y="-16.18359375" width="73.0234375" height="32.3671875"></rect><g class="label" style="" transform="translate(0, -8.68359375)"><rect></rect><text style=""><tspan xml:space="preserve" dy="1em" x="0" class="row">replayer</tspan></text></g></g><g class="node default default flowchart-label" id="flowchart-H2-10" data-node="true" data-id="H2" transform="translate(1005.140625, 158.19073867797852)"><rect class="basic label-container" style="" rx="0" ry="0" x="-66.6640625" y="-16.18359375" width="133.328125" height="32.3671875"></rect><g class="label" style="" transform="translate(0, -8.68359375)"><rect></rect><text style=""><tspan xml:space="preserve" dy="1em" x="0" class="row">host, unchanged</tspan></text></g></g><g class="node default default flowchart-label" id="flowchart-REC-1" data-node="true" data-id="REC" transform="translate(211.0234375, 93.94790840148926)"><rect class="basic label-container" style="" rx="0" ry="0" x="-37.3984375" y="-16" width="74.796875" height="32"></rect><g class="label" style="" transform="translate(0, -8.5)"><rect></rect><text style=""><tspan xml:space="preserve" dy="1em" x="0" class="row">recorder</tspan></text></g></g><g class="node default default flowchart-label" id="flowchart-H1-0" data-node="true" data-id="H1" transform="translate(47.625, 93.94790840148926)"><rect class="basic label-container" style="" rx="0" ry="0" x="-22.625" y="-16" width="45.25" height="32"></rect><g class="label" style="" transform="translate(0, -8.5)"><rect></rect><text style=""><tspan xml:space="preserve" dy="1em" x="0" class="row">host</tspan></text></g></g><g class="node default default flowchart-label" id="flowchart-M-3" data-node="true" data-id="M" transform="translate(420.21875, 58.294921875)"><rect class="basic label-container" style="" rx="0" ry="0" x="-43.96875" y="-16" width="87.9375" height="32"></rect><g class="label" style="" transform="translate(0, -8.5)"><rect></rect><text style=""><tspan xml:space="preserve" dy="1em" x="0" class="row">model API</tspan></text></g></g><g class="node default default flowchart-label" id="flowchart-C-7" data-node="true" data-id="C" transform="translate(420.21875, 158.19073867797852)"><path style="" d="M 0,11.810867844895807 a 55.96875,11.810867844895807 0,0,0 111.9375 0 a 55.96875,11.810867844895807 0,0,0 -111.9375 0 l 0,44.17805534489581 a 55.96875,11.810867844895807 0,0,0 111.9375 0 l 0,-44.17805534489581" transform="translate(-55.96875,-33.89989551734371)"></path><g class="label" style="" transform="translate(0, -8.68359375)"><rect></rect><text style=""><tspan xml:space="preserve" dy="1em" x="0" class="row">cassette.jsonl</tspan></text></g></g></g></g></g></svg>
