<svg id="ahp-97d689403f069316" width="100%" xmlns="http://www.w3.org/2000/svg" style="max-width: 633.052734375px;" viewBox="-8 -8 633.052734375 1199.5078125" role="graphics-document document" aria-roledescription="flowchart-v2"><title>S06-layered-detection</title><desc>Untrusted text passes through an injection screen, keyword floor, classifier, and scope governor in order; dangerous input is blocked or handed off before any in-scope reply reaches the model.</desc><style>#ahp-97d689403f069316{font-family:Arial,sans-serif;font-size:16px;fill:#ccc;}#ahp-97d689403f069316 .error-icon{fill:#a44141;}#ahp-97d689403f069316 .error-text{fill:#ddd;stroke:#ddd;}#ahp-97d689403f069316 .edge-thickness-normal{stroke-width:2px;}#ahp-97d689403f069316 .edge-thickness-thick{stroke-width:3.5px;}#ahp-97d689403f069316 .edge-pattern-solid{stroke-dasharray:0;}#ahp-97d689403f069316 .edge-pattern-dashed{stroke-dasharray:3;}#ahp-97d689403f069316 .edge-pattern-dotted{stroke-dasharray:2;}#ahp-97d689403f069316 .marker{fill:lightgrey;stroke:lightgrey;}#ahp-97d689403f069316 .marker.cross{stroke:lightgrey;}#ahp-97d689403f069316 svg{font-family:Arial,sans-serif;font-size:16px;}#ahp-97d689403f069316 .label{font-family:Arial,sans-serif;color:#ccc;}#ahp-97d689403f069316 .cluster-label text{fill:#F9FFFE;}#ahp-97d689403f069316 .cluster-label span,#ahp-97d689403f069316 p{color:#F9FFFE;}#ahp-97d689403f069316 .label text,#ahp-97d689403f069316 span,#ahp-97d689403f069316 p{fill:#ccc;color:#ccc;}#ahp-97d689403f069316 .node rect,#ahp-97d689403f069316 .node circle,#ahp-97d689403f069316 .node ellipse,#ahp-97d689403f069316 .node polygon,#ahp-97d689403f069316 .node path{fill:#1f2020;stroke:#81B1DB;stroke-width:1px;}#ahp-97d689403f069316 .flowchart-label text{text-anchor:middle;}#ahp-97d689403f069316 .node .katex path{fill:#000;stroke:#000;stroke-width:1px;}#ahp-97d689403f069316 .node .label{text-align:center;}#ahp-97d689403f069316 .node.clickable{cursor:pointer;}#ahp-97d689403f069316 .arrowheadPath{fill:lightgrey;}#ahp-97d689403f069316 .edgePath .path{stroke:lightgrey;stroke-width:2.0px;}#ahp-97d689403f069316 .flowchart-link{stroke:lightgrey;fill:none;}#ahp-97d689403f069316 .edgeLabel{background-color:hsl(0, 0%, 34.4117647059%);text-align:center;}#ahp-97d689403f069316 .edgeLabel rect{opacity:0.5;background-color:hsl(0, 0%, 34.4117647059%);fill:hsl(0, 0%, 34.4117647059%);}#ahp-97d689403f069316 .labelBkg{background-color:rgba(87.75, 87.75, 87.75, 0.5);}#ahp-97d689403f069316 .cluster rect{fill:hsl(180, 1.5873015873%, 28.3529411765%);stroke:rgba(255, 255, 255, 0.25);stroke-width:1px;}#ahp-97d689403f069316 .cluster text{fill:#F9FFFE;}#ahp-97d689403f069316 .cluster span,#ahp-97d689403f069316 p{color:#F9FFFE;}#ahp-97d689403f069316 div.mermaidTooltip{position:absolute;text-align:center;max-width:200px;padding:2px;font-family:Arial,sans-serif;font-size:12px;background:hsl(20, 1.5873015873%, 12.3529411765%);border:1px solid rgba(255, 255, 255, 0.25);border-radius:2px;pointer-events:none;z-index:100;}#ahp-97d689403f069316 .flowchartTitleText{text-anchor:middle;font-size:18px;fill:#ccc;}#ahp-97d689403f069316 :root{--mermaid-font-family:Arial,sans-serif;}</style><g><marker id="ahp-97d689403f069316_flowchart-pointEnd" class="marker flowchart" viewBox="0 0 10 10" refX="6" refY="5" markerUnits="userSpaceOnUse" markerWidth="12" markerHeight="12" orient="auto"><path d="M 0 0 L 10 5 L 0 10 z" class="arrowMarkerPath" style="stroke-width: 1; stroke-dasharray: 1, 0;"></path></marker><marker id="ahp-97d689403f069316_flowchart-pointStart" class="marker flowchart" viewBox="0 0 10 10" refX="4.5" refY="5" markerUnits="userSpaceOnUse" markerWidth="12" markerHeight="12" orient="auto"><path d="M 0 5 L 10 10 L 10 0 z" class="arrowMarkerPath" style="stroke-width: 1; stroke-dasharray: 1, 0;"></path></marker><marker id="ahp-97d689403f069316_flowchart-circleEnd" class="marker flowchart" viewBox="0 0 10 10" refX="11" refY="5" markerUnits="userSpaceOnUse" markerWidth="11" markerHeight="11" orient="auto"><circle cx="5" cy="5" r="5" class="arrowMarkerPath" style="stroke-width: 1; stroke-dasharray: 1, 0;"></circle></marker><marker id="ahp-97d689403f069316_flowchart-circleStart" class="marker flowchart" viewBox="0 0 10 10" refX="-1" refY="5" markerUnits="userSpaceOnUse" markerWidth="11" markerHeight="11" orient="auto"><circle cx="5" cy="5" r="5" class="arrowMarkerPath" style="stroke-width: 1; stroke-dasharray: 1, 0;"></circle></marker><marker id="ahp-97d689403f069316_flowchart-crossEnd" class="marker cross flowchart" viewBox="0 0 11 11" refX="12" refY="5.2" markerUnits="userSpaceOnUse" markerWidth="11" markerHeight="11" orient="auto"><path d="M 1,1 l 9,9 M 10,1 l -9,9" class="arrowMarkerPath" style="stroke-width: 2; stroke-dasharray: 1, 0;"></path></marker><marker id="ahp-97d689403f069316_flowchart-crossStart" class="marker cross flowchart" viewBox="0 0 11 11" refX="-1" refY="5.2" markerUnits="userSpaceOnUse" markerWidth="11" markerHeight="11" orient="auto"><path d="M 1,1 l 9,9 M 10,1 l -9,9" class="arrowMarkerPath" style="stroke-width: 2; stroke-dasharray: 1, 0;"></path></marker><g class="root"><g class="clusters"></g><g class="edgePaths"><path d="M200,48L200,52.167C200,56.333,200,64.667,200.066,72.2C200.132,79.734,200.264,86.467,200.33,89.834L200.396,93.201" id="L-U-S-0" class="edge-thickness-normal edge-pattern-solid flowchart-link LS-U LE-S" style="fill:none;" marker-end="url(#ahp-97d689403f069316_flowchart-pointEnd)"></path><path d="M158.998,231.17L147.533,243.587C136.069,256.004,113.14,280.838,101.675,307.183C90.211,333.528,90.211,361.383,90.211,375.311L90.211,389.239" id="L-S-B-0" class="edge-thickness-normal edge-pattern-solid flowchart-link LS-S LE-B" style="fill:none;" marker-end="url(#ahp-97d689403f069316_flowchart-pointEnd)"></path><path d="M242.002,231.17L253.3,243.587C264.598,256.004,287.193,280.838,298.562,298.038C309.93,315.239,310.07,324.806,310.141,329.589L310.211,334.372" id="L-S-F-0" class="edge-thickness-normal edge-pattern-solid flowchart-link LS-S LE-F" style="fill:none;" marker-end="url(#ahp-97d689403f069316_flowchart-pointEnd)"></path><path d="M258.292,446.41L231.139,460.576C203.985,474.742,149.678,503.074,122.525,544.672C95.371,586.27,95.371,641.133,95.371,696.027C95.371,750.921,95.371,805.845,97.565,848.537C99.76,891.228,104.148,921.686,106.342,936.916L108.537,952.145" id="L-F-H-0" class="edge-thickness-normal edge-pattern-solid flowchart-link LS-F LE-H" style="fill:none;" marker-end="url(#ahp-97d689403f069316_flowchart-pointEnd)"></path><path d="M344.898,463.798L353.591,475.066C362.285,486.334,379.673,508.87,388.437,524.922C397.201,540.973,397.342,550.54,397.412,555.323L397.483,560.107" id="L-F-C-0" class="edge-thickness-normal edge-pattern-solid flowchart-link LS-F LE-C" style="fill:none;" marker-end="url(#ahp-97d689403f069316_flowchart-pointEnd)"></path><path d="M325.981,756.006L304.796,773.467C283.61,790.927,241.24,825.848,208.117,858.714C174.994,891.58,151.118,922.391,139.18,937.796L127.243,953.201" id="L-C-H-0" class="edge-thickness-normal edge-pattern-solid flowchart-link LS-C LE-H" style="fill:none;" marker-end="url(#ahp-97d689403f069316_flowchart-pointEnd)"></path><path d="M412.176,812.971L413.103,820.937C414.029,828.904,415.883,844.837,416.88,857.617C417.877,870.398,418.018,880.026,418.088,884.84L418.159,889.654" id="L-C-G-0" class="edge-thickness-normal edge-pattern-solid flowchart-link LS-C LE-G" style="fill:none;" marker-end="url(#ahp-97d689403f069316_flowchart-pointEnd)"></path><path d="M379.949,1014.54L368.582,1026.437C357.215,1038.333,334.482,1062.125,323.115,1081.373C311.748,1100.62,311.748,1115.322,311.748,1122.673L311.748,1130.024" id="L-G-R-0" class="edge-thickness-normal edge-pattern-solid flowchart-link LS-G LE-R" style="fill:none;" marker-end="url(#ahp-97d689403f069316_flowchart-pointEnd)"></path><path d="M456.524,1014.54L467.724,1026.437C478.924,1038.333,501.324,1062.125,512.525,1081.373C523.725,1100.62,523.725,1115.322,523.725,1122.673L523.725,1130.024" id="L-G-M-0" class="edge-thickness-normal edge-pattern-solid flowchart-link LS-G LE-M" style="fill:none;" marker-end="url(#ahp-97d689403f069316_flowchart-pointEnd)"></path><path d="M111.598,989.391L111.598,1005.479C111.598,1021.566,111.598,1053.742,111.598,1074.545C111.598,1095.348,111.598,1104.778,111.598,1109.493L111.598,1114.208" id="L-H-T-0" class="edge-thickness-normal edge-pattern-solid flowchart-link LS-H LE-T" style="fill:none;" marker-end="url(#ahp-97d689403f069316_flowchart-pointEnd)"></path></g><g class="edgeLabels"><g class="edgeLabel"><g class="label" transform="translate(0, 0)"><rect rx="0" ry="0" width="0" height="0"></rect><text style=""><tspan xml:space="preserve" dy="1em" x="0" class="row"></tspan></text></g></g><g class="edgeLabel" transform="translate(90.2109375, 305.671875)"><g class="label" transform="translate(-8.453125, -8.5)"><rect rx="0" ry="0" width="16.890954971313477" height="17.00033187866211"></rect><text style=""><tspan xml:space="preserve" dy="1em" x="0" class="row">hit</tspan></text></g></g><g class="edgeLabel" transform="translate(309.7890625, 305.671875)"><g class="label" transform="translate(-19.125, -8.5)"><rect rx="0" ry="0" width="38.23512268066406" height="17.00033187866211"></rect><text style=""><tspan xml:space="preserve" dy="1em" x="0" class="row">clean</tspan></text></g></g><g class="edgeLabel" transform="translate(95.37109375, 695.99609375)"><g class="label" transform="translate(-8.453125, -8.5)"><rect rx="0" ry="0" width="16.890954971313477" height="17.00033187866211"></rect><text style=""><tspan xml:space="preserve" dy="1em" x="0" class="row">hit</tspan></text></g></g><g class="edgeLabel" transform="translate(397.060546875, 531.40625)"><g class="label" transform="translate(-16.4453125, -8.5)"><rect rx="0" ry="0" width="32.875640869140625" height="17.00033187866211"></rect><text style=""><tspan xml:space="preserve" dy="1em" x="0" class="row">miss</tspan></text></g></g><g class="edgeLabel" transform="translate(198.869140625, 860.76953125)"><g class="label" transform="translate(-12.453125, -8.68359375)"><rect rx="0" ry="0" width="24.891111373901367" height="17.36542320251465"></rect><text style=""><tspan xml:space="preserve" dy="1em" x="0" class="row">yes</tspan></text></g></g><g class="edgeLabel" transform="translate(417.736328125, 860.76953125)"><g class="label" transform="translate(-8.8984375, -8.5)"><rect rx="0" ry="0" width="17.797222137451172" height="17.00033187866211"></rect><text style=""><tspan xml:space="preserve" dy="1em" x="0" class="row">no</tspan></text></g></g><g class="edgeLabel" transform="translate(311.748046875, 1085.91796875)"><g class="label" transform="translate(-43.5859375, -8.58984375)"><rect rx="0" ry="0" width="87.12670135498047" height="17.178035736083984"></rect><text style=""><tspan xml:space="preserve" dy="1em" x="0" class="row">out of scope</tspan></text></g></g><g class="edgeLabel" transform="translate(523.724609375, 1085.91796875)"><g class="label" transform="translate(-29.796875, -8.58984375)"><rect rx="0" ry="0" width="59.563663482666016" height="17.178035736083984"></rect><text style=""><tspan xml:space="preserve" dy="1em" x="0" class="row">in scope</tspan></text></g></g><g class="edgeLabel"><g class="label" transform="translate(0, 0)"><rect rx="0" ry="0" width="0" height="0"></rect><text style=""><tspan xml:space="preserve" dy="1em" x="0" class="row"></tspan></text></g></g></g><g class="nodes"><g class="node default default flowchart-label" id="flowchart-U-0" data-node="true" data-id="U" transform="translate(200, 24)"><rect class="basic label-container" style="" rx="0" ry="0" x="-92.875" y="-24" width="185.75" height="48"></rect><g class="label" style="" transform="translate(0, -16.5)"><rect></rect><text style=""><tspan xml:space="preserve" dy="1em" x="0" class="row">untrusted message</tspan><tspan xml:space="preserve" dy="1em" x="0" class="row">user turn, file, tool result</tspan></text></g></g><g class="node default default flowchart-label" id="flowchart-S-1" data-node="true" data-id="S" transform="translate(200, 185.0859375)"><polygon points="87.0859375,0 174.171875,-87.0859375 87.0859375,-174.171875 0,-87.0859375" class="label-container" transform="translate(-87.0859375,87.0859375)" style=""></polygon><g class="label" style="" transform="translate(0, -16.5)"><rect></rect><text style=""><tspan xml:space="preserve" dy="1em" x="0" class="row">injection screen</tspan><tspan xml:space="preserve" dy="1em" x="0" class="row">deterministic</tspan></text></g></g><g class="node default default flowchart-label" id="flowchart-B-3" data-node="true" data-id="B" transform="translate(90.2109375, 418.5390625)"><rect class="basic label-container" style="" rx="0" ry="0" x="-90.2109375" y="-24" width="180.421875" height="48"></rect><g class="label" style="" transform="translate(0, -16.5)"><rect></rect><text style=""><tspan xml:space="preserve" dy="1em" x="0" class="row">blocked:</tspan><tspan xml:space="preserve" dy="1em" x="0" class="row">the model never sees it</tspan></text></g></g><g class="node default default flowchart-label" id="flowchart-F-5" data-node="true" data-id="F" transform="translate(309.7890625, 418.5390625)"><polygon points="79.3671875,0 158.734375,-79.3671875 79.3671875,-158.734375 0,-79.3671875" class="label-container" transform="translate(-79.3671875,79.3671875)" style=""></polygon><g class="label" style="" transform="translate(0, -16.68359375)"><rect></rect><text style=""><tspan xml:space="preserve" dy="1em" x="0" class="row">keyword floor</tspan><tspan xml:space="preserve" dy="1em" x="0" class="row">cheap regex</tspan></text></g></g><g class="node default default flowchart-label" id="flowchart-H-7" data-node="true" data-id="H" transform="translate(111.59765625, 973.390625)"><rect class="basic label-container" style="" rx="0" ry="0" x="-34.32421875" y="-16" width="68.6484375" height="32"></rect><g class="label" style="" transform="translate(0, -8.5)"><rect></rect><text style=""><tspan xml:space="preserve" dy="1em" x="0" class="row">handoff</tspan></text></g></g><g class="node default default flowchart-label" id="flowchart-C-9" data-node="true" data-id="C" transform="translate(397.060546875, 695.99609375)"><polygon points="131.08984375,0 262.1796875,-131.08984375 131.08984375,-262.1796875 0,-131.08984375" class="label-container" transform="translate(-131.08984375,131.08984375)" style=""></polygon><g class="label" style="" transform="translate(0, -16.68359375)"><rect></rect><text style=""><tspan xml:space="preserve" dy="1em" x="0" class="row">classifier</tspan><tspan xml:space="preserve" dy="1em" x="0" class="row">confidence &gt;= threshold?</tspan></text></g></g><g class="node default default flowchart-label" id="flowchart-G-13" data-node="true" data-id="G" transform="translate(417.736328125, 973.390625)"><polygon points="78.9375,0 157.875,-78.9375 78.9375,-157.875 0,-78.9375" class="label-container" transform="translate(-78.9375,78.9375)" style=""></polygon><g class="label" style="" transform="translate(0, -8.68359375)"><rect></rect><text style=""><tspan xml:space="preserve" dy="1em" x="0" class="row">scope governor</tspan></text></g></g><g class="node default default flowchart-label" id="flowchart-R-15" data-node="true" data-id="R" transform="translate(311.748046875, 1151.5078125)"><rect class="basic label-container" style="" rx="0" ry="0" x="-68.6484375" y="-16.18359375" width="137.296875" height="32.3671875"></rect><g class="label" style="" transform="translate(0, -8.68359375)"><rect></rect><text style=""><tspan xml:space="preserve" dy="1em" x="0" class="row">refuse + signpost</tspan></text></g></g><g class="node default default flowchart-label" id="flowchart-M-17" data-node="true" data-id="M" transform="translate(523.724609375, 1151.5078125)"><rect class="basic label-container" style="" rx="0" ry="0" x="-93.328125" y="-16.18359375" width="186.65625" height="32.3671875"></rect><g class="label" style="" transform="translate(0, -8.68359375)"><rect></rect><text style=""><tspan xml:space="preserve" dy="1em" x="0" class="row">model generates a reply</tspan></text></g></g><g class="node default default flowchart-label" id="flowchart-T-19" data-node="true" data-id="T" transform="translate(111.59765625, 1151.5078125)"><rect class="basic label-container" style="" rx="0" ry="0" x="-65.7578125" y="-32" width="131.515625" height="64"></rect><g class="label" style="" transform="translate(0, -24.5)"><rect></rect><text style=""><tspan xml:space="preserve" dy="1em" x="0" class="row">break character</tspan><tspan xml:space="preserve" dy="1em" x="0" class="row">contacts as data</tspan><tspan xml:space="preserve" dy="1em" x="0" class="row">terminal state</tspan></text></g></g></g></g></g></svg>
